<svg viewBox="0 0 228 48" xmlns="http://www.w3.org/2000/svg" fill-rule="evenodd" clip-rule="evenodd" stroke-linejoin="round" stroke-miterlimit="1.414"><path d="M53.485 36.554l1.885-17.152.4.027-1.413 16.51-.872.614z" fill="#BCAC9A" fill-rule="nonzero"/><path d="M51.115 4.325l-.695.835 4.7 12.018.265-.082-4.27-12.77z" fill="#6E4D31" fill-rule="nonzero"/><path d="M62.354 5.292l-6.35 11.78.29.197 6.75-11.118-.69-.86z" fill="#74378B" fill-rule="nonzero"/><path d="M68.103 4.637L56.293 17.27l.33.3L68.078 5.693l.06-.06-.034-.997z" fill="#7B76AD" fill-rule="nonzero"/><path d="M56.606 17.583l.225.45 12.378-4.036.065-1.003-12.667 4.59z" fill="#2C4E4B" fill-rule="nonzero"/><path d="M56.816 18.142l-.053.45 16.442 2.06.826-.658-17.214-1.852z" fill="#0C406B" fill-rule="nonzero"/><path d="M56.758 18.607l-.082.2 10.682 5.7.104.052.782-.524-11.486-5.43z" fill="#ACCDEC" fill-rule="nonzero"/><path d="M69.84 32.886l-.082-.082L56.422 19.16l.2-.293L70.75 32.644l-.91.242z" fill="#6D624F" fill-rule="nonzero"/><path d="M57.363-.038l-1.78 16.907-.02.21.318.016L57.986.59 58 .482l-.637-.52z" fill="#612D44" fill-rule="nonzero"/><path d="M42.717 5.26l-.182.772 12.22 11.44.294-.238L42.716 5.26z" fill="#FECF8C" fill-rule="nonzero"/><path d="M42.98 11.077v.964l11.55 5.83.13-.323-11.68-6.47z" fill="#FAA85F" fill-rule="nonzero"/><path d="M37.733 15.01l.426.867 16.28 2.47.097-.44-16.804-2.896z" fill="#C9252B" fill-rule="nonzero"/><path d="M54.457 18.348L41.76 23.036l.656.572 12.213-4.743-.173-.517z" fill="#B95630" fill-rule="nonzero"/><path d="M49.772 29.825l5.12-10.664.478.242-4.238 10.216-1.36.207z" fill="#D0C697" fill-rule="nonzero"/><path d="M59.68 30.415L55.77 19.43l.57-.218 4.11 10.23-.77.973z" fill="#AAA26F" fill-rule="nonzero"/><path d="M43.886 31.6h-.976l11.81-12.657.173.218L43.886 31.6z" fill="#F15B25" fill-rule="nonzero"/><path d="M23.272 19.234h1.18V8.054h3.673V7H19.58v1.054h3.692v11.18z" fill="#0C406B" fill-rule="nonzero"/><path d="M27.242 9.21h-.86v8.945h.86V13.93h4.6v4.225h.857V9.21h-.857v3.97h-4.6V9.21zM38.09 17.39H34.4v-3.46h3.368v-.75H34.4v-3.164h3.528v-.764h-4.385v8.903h4.547v-.764zM19.054 45.178H6.01V32.94h11.907v-2.656H6.01V19.09h12.475v-2.702H2.975v31.496h16.08v-2.706zM119.006 45.206h2.215V24.23h6.888v-1.974h-16.026v1.975h6.924v20.976zM21.892 22.19V45.27h11.595v-1.97h-9.38V22.19H21.89zM75.11 37.146l4.157-10.49c.31-.833.657-1.63.934-2.46.208.83.556 1.662.865 2.46l4.19 10.49H75.112zm6.44-14.957h-2.663L69.573 45.27h2.25l2.492-6.194h11.767l2.528 6.194H91L81.55 22.19zM107.08 35.62c0 2.7.033 5.434.45 8.136-.523-1.627-1.32-3.254-2.946-5.92L95.067 22.19H92.47V45.27h2.077v-14.36c0-2.287 0-4.568-.277-6.817.66 2.037 1.87 3.945 2.976 5.78l9.416 15.397h2.49V22.19h-2.073v13.43zM144.2 45.367c-6.416 0-10.616-5.26-10.616-13.198 0-6.51 3.185-13.294 10.57-13.294 7.525 0 10.618 6.97 10.618 13.568 0 7.756-4.202 12.923-10.572 12.923zm-.275-29.125c-8.908 0-13.433 7.756-13.433 15.927 0 9.414 5.585 15.83 13.756 15.83 8.26 0 13.614-6.14 13.614-15.6 0-8.54-4.66-16.158-13.937-16.158zM159.726 45.112h2.205V34.276h8.325V32.35h-8.324v-8.087h8.67V22.3h-10.874V45.11zM173.583 45.112h2.205V34.276h8.325V32.35h-8.325v-8.087h8.67V22.3h-10.875V45.11zM187.647 22.165h2.203v22.947h-2.203zM204.005 24.022c1.755 0 3.303.31 5.09 1.067l.208-2.1c-1.79-.69-3.164-.928-5.164-.928-7.223 0-11.97 4.542-11.97 11.424 0 7.466 4.85 11.733 12.11 11.733 1.996 0 3.406-.242 4.988-.828l-.134-2.2c-1.62.755-3.132 1.064-5.06 1.064-5.885 0-9.566-3.683-9.566-9.53 0-5.85 3.75-9.704 9.497-9.704zM215.097 34.276h8.64V32.35h-8.64v-8.12h9.053v-1.963h-11.255v22.845h11.666v-1.96h-9.463v-8.876zM60.764 34.893h5.4v7.753c-1.696.556-2.77.76-4.326.76-5.955 0-10.005-3.946-10.005-9.795 0-5.745 3.843-9.552 9.66-9.552 1.868 0 3.494.346 5.676 1.177l.31-2.077c-1.732-.728-3.702-1.072-5.988-1.072-7.235 0-11.977 4.534-11.977 11.493 0 7.024 5.02 11.8 11.977 11.8 2.526 0 4.5-.343 6.887-1.242V32.92h-7.616v1.973zM47.042 24.264v-1.97h-11.32V45.27h11.736v-1.97h-9.52v-8.927h8.688v-1.94h-8.688v-8.17h9.104z" fill="#0C406B" fill-rule="nonzero"/></svg>